<?xml version="1.0" encoding="utf-8"?>
<!-- Generator: Adobe Illustrator 19.0.0, SVG Export Plug-In . SVG Version: 6.00 Build 0)  -->
<svg version="1.1" xmlns="http://www.w3.org/2000/svg" xmlns:xlink="http://www.w3.org/1999/xlink" x="0px" y="0px"
	 viewBox="553.6 241 1064.9 312" style="enable-background:new 553.6 241 1064.9 312;" xml:space="preserve">
<style type="text/css">
	.st0{enable-background:new    ;}
	.st1{fill:#FFFFFF;}
	.st2{fill:none;stroke:#000000;stroke-width:2;stroke-linejoin:round;}
</style>
<g id="Layer_1">
	<g id="Layer_1_1_">
		<g id="Artboard_1">
			<g id="logoo">
				<g class="st0">
					<path class="st1" d="M1191,332.9v100.7c0,9.2,2.6,14.5,11.8,14.5h32.4v26.6h-32.4c-25.4,0-41.2-15.8-41.2-41.2V332.9h-21.1
						v-26.6h21.1v-45.6h29.4v45.6h44.2v26.6H1191z"/>
					<path class="st1" d="M1356.5,360.8v15.4c0,8.4-4,16.4-10.9,21.3l-29.2,21.2c-4.5,3.3-10,5.1-15.5,5.1h-20.3v9.9h0
						c0,9.2,2.6,14.5,11.8,14.5h64.1v26.6h-64.1c-25.4,0-41.2-15.8-41.2-41.2h0v-72.9c0-25.4,15.8-41.2,41.2-41.2v0l22.9,0
						C1340.7,319.6,1356.5,335.4,1356.5,360.8z M1327.1,360.8c0-9.2-2.6-14.5-11.8-14.5v0h-22.9v0c-9.2,0-11.8,5.3-11.8,14.5v36.4
						h31.5c1.1,0,2.2-0.3,3.1-1l9.7-7.1c1.4-1,2.2-2.6,2.2-4.3V360.8z"/>
					<path class="st1" d="M1453.2,374.3v-13.5c0-9.2-2.6-14.5-11.8-14.5h-22.9c-9.2,0-11.8,5.3-11.8,14.5v72.9
						c0,9.2,2.6,14.5,11.8,14.5h22.9c9.2,0,11.8-5.3,11.8-14.5v-13.5h29.4v13.5c0,25.4-15.8,41.2-41.2,41.2h-22.9
						c-25.4,0-41.2-15.8-41.2-41.2v-72.9c0-25.4,15.8-41.2,41.2-41.2h22.9c25.4,0,41.2,15.8,41.2,41.2v13.5H1453.2z"/>
					<path class="st1" d="M1610.8,367.3v107.6h-29.4V358.6c0-1.7-0.8-3.3-2.2-4.3l-9.7-7.1c-0.9-0.7-2-1-3.1-1h-31.5v128.6h-29.4
						V260.7h29.4v59h20.3c5.6,0,11,1.8,15.5,5.1l29.2,21.2C1606.8,350.9,1610.8,358.8,1610.8,367.3z"/>
				</g>
				<g class="st0">
					<path class="st2" d="M1191,332.9v100.7c0,9.2,2.6,14.5,11.8,14.5h32.4v26.6h-32.4c-25.4,0-41.2-15.8-41.2-41.2V332.9h-21.1
						v-26.6h21.1v-45.6h29.4v45.6h44.2v26.6H1191z"/>
					<path class="st2" d="M1356.5,360.8v15.4c0,8.4-4,16.4-10.9,21.3l-29.2,21.2c-4.5,3.3-10,5.1-15.5,5.1h-20.3v9.9h0
						c0,9.2,2.6,14.5,11.8,14.5h64.1v26.6h-64.1c-25.4,0-41.2-15.8-41.2-41.2h0v-72.9c0-25.4,15.8-41.2,41.2-41.2v0l22.9,0
						C1340.7,319.6,1356.5,335.4,1356.5,360.8z M1327.1,360.8c0-9.2-2.6-14.5-11.8-14.5v0h-22.9v0c-9.2,0-11.8,5.3-11.8,14.5v36.4
						h31.5c1.1,0,2.2-0.3,3.1-1l9.7-7.1c1.4-1,2.2-2.6,2.2-4.3V360.8z"/>
					<path class="st2" d="M1453.2,374.3v-13.5c0-9.2-2.6-14.5-11.8-14.5h-22.9c-9.2,0-11.8,5.3-11.8,14.5v72.9
						c0,9.2,2.6,14.5,11.8,14.5h22.9c9.2,0,11.8-5.3,11.8-14.5v-13.5h29.4v13.5c0,25.4-15.8,41.2-41.2,41.2h-22.9
						c-25.4,0-41.2-15.8-41.2-41.2v-72.9c0-25.4,15.8-41.2,41.2-41.2h22.9c25.4,0,41.2,15.8,41.2,41.2v13.5H1453.2z"/>
					<path class="st2" d="M1610.8,367.3v107.6h-29.4V358.6c0-1.7-0.8-3.3-2.2-4.3l-9.7-7.1c-0.9-0.7-2-1-3.1-1h-31.5v128.6h-29.4
						V260.7h29.4v59h20.3c5.6,0,11,1.8,15.5,5.1l29.2,21.2C1606.8,350.9,1610.8,358.8,1610.8,367.3z"/>
				</g>
			</g>
		</g>
	</g>
</g>
<g id="Layer_2_1_">
	<g class="st0">
		<path d="M666.7,356.8v15.4c0,8.4-4,16.4-10.9,21.3l-29.2,21.2c-4.5,3.3-10,5.1-15.5,5.1h-20.3v9.9h0c0,9.2,2.6,14.5,11.8,14.5
			h64.1v26.6h-64.1c-25.4,0-41.2-15.8-41.2-41.2h0v-72.9c0-25.4,15.8-41.2,41.2-41.2v0l22.9,0C650.9,315.7,666.7,331.4,666.7,356.8z
			 M637.3,356.8c0-9.2-2.6-14.5-11.8-14.5v0h-22.9v0c-9.2,0-11.8,5.3-11.8,14.5v36.4h31.5c1.1,0,2.2-0.3,3.1-1l9.7-7.1
			c1.4-1,2.2-2.6,2.2-4.3V356.8z"/>
		<path d="M791.5,356.8v185.7h-29.4v-71.7h-20.3c-5.6,0-11-1.8-15.5-5.1l-27.5-20c-7.9-5.8-12.6-14.9-12.6-24.7v-64.3
			c0-25.4,15.8-41.2,41.2-41.2h22.9C775.7,315.7,791.5,331.4,791.5,356.8z M762.1,356.8c0-9.2-2.6-14.5-11.8-14.5h-22.9
			c-9.2,0-11.8,5.3-11.8,14.5v75.1c0,1.7,0.8,3.3,2.2,4.3l9.7,7.1c0.9,0.7,2,1,3.1,1h31.5V356.8z"/>
		<path d="M922.2,315.7v155.2h-18.8l-8.9-11.8c-5.8,8.5-15.3,11.8-28.1,11.8h-8.2c-25.4,0-41.2-15.8-41.2-41.2V315.7h29.4v114.1
			c0,9.2,2.6,14.5,11.8,14.5H881c9.2,0,11.8-5.3,11.8-14.5V315.7H922.2z"/>
		<path d="M994.3,315.7v155.2h-29.4V342.3h-26.5v-26.6H994.3z M961.2,269.8c0-10.2,8.2-18.4,18.4-18.4c10.2,0,18.4,8.2,18.4,18.4
			c0,10.2-8.2,18.4-18.4,18.4C969.4,288.3,961.2,280,961.2,269.8z"/>
		<path d="M1124.8,356.8v72.9c0,25.4-15.8,41.2-41.2,41.2h-22.9c-25.4,0-41.2-15.8-41.2-41.2v-72.9c0-25.4,15.8-41.2,41.2-41.2h22.9
			C1109,315.7,1124.8,331.4,1124.8,356.8z M1095.4,356.8c0-9.2-2.6-14.5-11.8-14.5h-22.9c-9.2,0-11.8,5.3-11.8,14.5v72.9
			c0,9.2,2.6,14.5,11.8,14.5h22.9c9.2,0,11.8-5.3,11.8-14.5V356.8z"/>
	</g>
	<g id="Layer_3_1_">
	</g>
</g>
</svg>
