<?xml version="1.0" encoding="utf-8"?>
<!-- Generator: Adobe Illustrator 19.0.0, SVG Export Plug-In . SVG Version: 6.00 Build 0)  -->
<svg version="1.1" id="Layer_1" xmlns="http://www.w3.org/2000/svg" xmlns:xlink="http://www.w3.org/1999/xlink" x="0px" y="0px"
	 viewBox="550 241 1063 312" style="enable-background:new 550 241 1063 312;" xml:space="preserve">
<style type="text/css">
	.st0{enable-background:new    ;}
	.st1{fill:none;stroke:#000000;stroke-width:2;stroke-linejoin:round;}
	.st2{fill:#FFFFFF;}
	.st3{fill:#A1A1A1;}
	.st4{fill:none;stroke:#A1A1A1;stroke-miterlimit:10;}
</style>
<g id="Layer_1_1_">
	<g id="Artboard_1">
		<g id="logoo">
			<g class="st0">
				<path d="M663.4,356.8v15.4c0,8.4-4,16.4-10.9,21.3l-29.2,21.2c-4.5,3.3-10,5.1-15.5,5.1h-20.3v9.9h0c0,9.2,2.6,14.5,11.8,14.5
					h64.1v26.6h-64.1c-25.4,0-41.2-15.8-41.2-41.2h0v-72.9c0-25.4,15.8-41.2,41.2-41.2v0l22.9,0
					C647.6,315.7,663.4,331.4,663.4,356.8z M634,356.8c0-9.2-2.6-14.5-11.8-14.5v0h-22.9v0c-9.2,0-11.8,5.3-11.8,14.5v36.4H619
					c1.1,0,2.2-0.3,3.1-1l9.7-7.1c1.4-1,2.2-2.6,2.2-4.3V356.8z"/>
				<path d="M788.2,356.8v185.7h-29.4v-71.7h-20.3c-5.6,0-11-1.8-15.5-5.1l-27.5-20c-7.9-5.8-12.6-14.9-12.6-24.7v-64.3
					c0-25.4,15.8-41.2,41.2-41.2H747C772.4,315.7,788.2,331.4,788.2,356.8z M758.8,356.8c0-9.2-2.6-14.5-11.8-14.5h-22.9
					c-9.2,0-11.8,5.3-11.8,14.5v75.1c0,1.7,0.8,3.3,2.2,4.3l9.7,7.1c0.9,0.7,2,1,3.1,1h31.5V356.8z"/>
				<path d="M918.9,315.7v155.2H900l-8.9-11.8c-5.8,8.5-15.3,11.8-28.1,11.8h-8.2c-25.4,0-41.2-15.8-41.2-41.2V315.7H843v114.1
					c0,9.2,2.6,14.5,11.8,14.5h22.9c9.2,0,11.8-5.3,11.8-14.5V315.7H918.9z"/>
				<path d="M991,315.7v155.2h-29.4V342.3h-26.5v-26.6H991z M957.9,269.8c0-10.2,8.2-18.4,18.4-18.4c10.2,0,18.4,8.2,18.4,18.4
					c0,10.2-8.2,18.4-18.4,18.4C966.1,288.3,957.9,280,957.9,269.8z"/>
				<path d="M1121.4,356.8v72.9c0,25.4-15.8,41.2-41.2,41.2h-22.9c-25.4,0-41.2-15.8-41.2-41.2v-72.9c0-25.4,15.8-41.2,41.2-41.2
					h22.9C1105.7,315.7,1121.4,331.4,1121.4,356.8z M1092.1,356.8c0-9.2-2.6-14.5-11.8-14.5h-22.9c-9.2,0-11.8,5.3-11.8,14.5v72.9
					c0,9.2,2.6,14.5,11.8,14.5h22.9c9.2,0,11.8-5.3,11.8-14.5V356.8z"/>
			</g>
			<g class="st0">
				<path class="st1" d="M663.4,356.8v15.4c0,8.4-4,16.4-10.9,21.3l-29.2,21.2c-4.5,3.3-10,5.1-15.5,5.1h-20.3v9.9h0
					c0,9.2,2.6,14.5,11.8,14.5h64.1v26.6h-64.1c-25.4,0-41.2-15.8-41.2-41.2h0v-72.9c0-25.4,15.8-41.2,41.2-41.2v0l22.9,0
					C647.6,315.7,663.4,331.4,663.4,356.8z M634,356.8c0-9.2-2.6-14.5-11.8-14.5v0h-22.9v0c-9.2,0-11.8,5.3-11.8,14.5v36.4H619
					c1.1,0,2.2-0.3,3.1-1l9.7-7.1c1.4-1,2.2-2.6,2.2-4.3V356.8z"/>
				<path class="st1" d="M788.2,356.8v185.7h-29.4v-71.7h-20.3c-5.6,0-11-1.8-15.5-5.1l-27.5-20c-7.9-5.8-12.6-14.9-12.6-24.7v-64.3
					c0-25.4,15.8-41.2,41.2-41.2H747C772.4,315.7,788.2,331.4,788.2,356.8z M758.8,356.8c0-9.2-2.6-14.5-11.8-14.5h-22.9
					c-9.2,0-11.8,5.3-11.8,14.5v75.1c0,1.7,0.8,3.3,2.2,4.3l9.7,7.1c0.9,0.7,2,1,3.1,1h31.5V356.8z"/>
				<path class="st1" d="M918.9,315.7v155.2H900l-8.9-11.8c-5.8,8.5-15.3,11.8-28.1,11.8h-8.2c-25.4,0-41.2-15.8-41.2-41.2V315.7
					H843v114.1c0,9.2,2.6,14.5,11.8,14.5h22.9c9.2,0,11.8-5.3,11.8-14.5V315.7H918.9z"/>
				<path class="st1" d="M991,315.7v155.2h-29.4V342.3h-26.5v-26.6H991z M957.9,269.8c0-10.2,8.2-18.4,18.4-18.4
					c10.2,0,18.4,8.2,18.4,18.4c0,10.2-8.2,18.4-18.4,18.4C966.1,288.3,957.9,280,957.9,269.8z"/>
				<path class="st1" d="M1121.4,356.8v72.9c0,25.4-15.8,41.2-41.2,41.2h-22.9c-25.4,0-41.2-15.8-41.2-41.2v-72.9
					c0-25.4,15.8-41.2,41.2-41.2h22.9C1105.7,315.7,1121.4,331.4,1121.4,356.8z M1092.1,356.8c0-9.2-2.6-14.5-11.8-14.5h-22.9
					c-9.2,0-11.8,5.3-11.8,14.5v72.9c0,9.2,2.6,14.5,11.8,14.5h22.9c9.2,0,11.8-5.3,11.8-14.5V356.8z"/>
			</g>
			<g class="st0">
				<path class="st2" d="M1186,329v100.7c0,9.2,2.6,14.5,11.8,14.5h32.4v26.6h-32.4c-25.4,0-41.2-15.8-41.2-41.2V329h-21.1v-26.6
					h21.1v-45.6h29.4v45.6h44.2V329H1186z"/>
				<path class="st2" d="M1351.6,356.8v15.4c0,8.4-4,16.4-10.9,21.3l-29.2,21.2c-4.5,3.3-10,5.1-15.5,5.1h-20.3v9.9h0
					c0,9.2,2.6,14.5,11.8,14.5h64.1v26.6h-64.1c-25.4,0-41.2-15.8-41.2-41.2h0v-72.9c0-25.4,15.8-41.2,41.2-41.2v0l22.9,0
					C1335.8,315.7,1351.6,331.4,1351.6,356.8z M1322.2,356.8c0-9.2-2.6-14.5-11.8-14.5v0h-22.9v0c-9.2,0-11.8,5.3-11.8,14.5v36.4
					h31.5c1.1,0,2.2-0.3,3.1-1l9.7-7.1c1.4-1,2.2-2.6,2.2-4.3V356.8z"/>
				<path class="st2" d="M1448.2,370.3v-13.5c0-9.2-2.6-14.5-11.8-14.5h-22.9c-9.2,0-11.8,5.3-11.8,14.5v72.9
					c0,9.2,2.6,14.5,11.8,14.5h22.9c9.2,0,11.8-5.3,11.8-14.5v-13.5h29.4v13.5c0,25.4-15.8,41.2-41.2,41.2h-22.9
					c-25.4,0-41.2-15.8-41.2-41.2v-72.9c0-25.4,15.8-41.2,41.2-41.2h22.9c25.4,0,41.2,15.8,41.2,41.2v13.5H1448.2z"/>
				<path class="st2" d="M1605.8,363.3v107.6h-29.4V354.6c0-1.7-0.8-3.3-2.2-4.3l-9.7-7.1c-0.9-0.7-2-1-3.1-1H1530v128.6h-29.4
					V256.7h29.4v59h20.3c5.6,0,11,1.8,15.5,5.1L1595,342C1601.8,346.9,1605.8,354.9,1605.8,363.3z"/>
			</g>
			<g class="st0">
				<path class="st3" d="M1186,329v100.7c0,9.2,2.6,14.5,11.8,14.5h32.4v26.6h-32.4c-25.4,0-41.2-15.8-41.2-41.2V329h-21.1v-26.6
					h21.1v-45.6h29.4v45.6h44.2V329H1186z"/>
				<path class="st3" d="M1351.6,356.8v15.4c0,8.4-4,16.4-10.9,21.3l-29.2,21.2c-4.5,3.3-10,5.1-15.5,5.1h-20.3v9.9h0
					c0,9.2,2.6,14.5,11.8,14.5h64.1v26.6h-64.1c-25.4,0-41.2-15.8-41.2-41.2h0v-72.9c0-25.4,15.8-41.2,41.2-41.2v0l22.9,0
					C1335.8,315.7,1351.6,331.4,1351.6,356.8z M1322.2,356.8c0-9.2-2.6-14.5-11.8-14.5v0h-22.9v0c-9.2,0-11.8,5.3-11.8,14.5v36.4
					h31.5c1.1,0,2.2-0.3,3.1-1l9.7-7.1c1.4-1,2.2-2.6,2.2-4.3V356.8z"/>
				<path class="st3" d="M1448.2,370.3v-13.5c0-9.2-2.6-14.5-11.8-14.5h-22.9c-9.2,0-11.8,5.3-11.8,14.5v72.9
					c0,9.2,2.6,14.5,11.8,14.5h22.9c9.2,0,11.8-5.3,11.8-14.5v-13.5h29.4v13.5c0,25.4-15.8,41.2-41.2,41.2h-22.9
					c-25.4,0-41.2-15.8-41.2-41.2v-72.9c0-25.4,15.8-41.2,41.2-41.2h22.9c25.4,0,41.2,15.8,41.2,41.2v13.5H1448.2z"/>
				<path class="st3" d="M1605.8,363.3v107.6h-29.4V354.6c0-1.7-0.8-3.3-2.2-4.3l-9.7-7.1c-0.9-0.7-2-1-3.1-1H1530v128.6h-29.4
					V256.7h29.4v59h20.3c5.6,0,11,1.8,15.5,5.1L1595,342C1601.8,346.9,1605.8,354.9,1605.8,363.3z"/>
			</g>
			<g class="st0">
				<path class="st4" d="M1186,329v100.7c0,9.2,2.6,14.5,11.8,14.5h32.4v26.6h-32.4c-25.4,0-41.2-15.8-41.2-41.2V329h-21.1v-26.6
					h21.1v-45.6h29.4v45.6h44.2V329H1186z"/>
				<path class="st4" d="M1351.6,356.8v15.4c0,8.4-4,16.4-10.9,21.3l-29.2,21.2c-4.5,3.3-10,5.1-15.5,5.1h-20.3v9.9h0
					c0,9.2,2.6,14.5,11.8,14.5h64.1v26.6h-64.1c-25.4,0-41.2-15.8-41.2-41.2h0v-72.9c0-25.4,15.8-41.2,41.2-41.2v0l22.9,0
					C1335.8,315.7,1351.6,331.4,1351.6,356.8z M1322.2,356.8c0-9.2-2.6-14.5-11.8-14.5v0h-22.9v0c-9.2,0-11.8,5.3-11.8,14.5v36.4
					h31.5c1.1,0,2.2-0.3,3.1-1l9.7-7.1c1.4-1,2.2-2.6,2.2-4.3V356.8z"/>
				<path class="st4" d="M1448.2,370.3v-13.5c0-9.2-2.6-14.5-11.8-14.5h-22.9c-9.2,0-11.8,5.3-11.8,14.5v72.9
					c0,9.2,2.6,14.5,11.8,14.5h22.9c9.2,0,11.8-5.3,11.8-14.5v-13.5h29.4v13.5c0,25.4-15.8,41.2-41.2,41.2h-22.9
					c-25.4,0-41.2-15.8-41.2-41.2v-72.9c0-25.4,15.8-41.2,41.2-41.2h22.9c25.4,0,41.2,15.8,41.2,41.2v13.5H1448.2z"/>
				<path class="st4" d="M1605.8,363.3v107.6h-29.4V354.6c0-1.7-0.8-3.3-2.2-4.3l-9.7-7.1c-0.9-0.7-2-1-3.1-1H1530v128.6h-29.4
					V256.7h29.4v59h20.3c5.6,0,11,1.8,15.5,5.1L1595,342C1601.8,346.9,1605.8,354.9,1605.8,363.3z"/>
			</g>
		</g>
	</g>
</g>
</svg>
