<?xml version="1.0" standalone="no"?>
<!DOCTYPE svg PUBLIC "-//W3C//DTD SVG 20010904//EN"
 "http://www.w3.org/TR/2001/REC-SVG-20010904/DTD/svg10.dtd">
<svg version="1.0" xmlns="http://www.w3.org/2000/svg"
 width="349.000000pt" height="99.000000pt" viewBox="0 0 349.000000 99.000000"
 preserveAspectRatio="xMidYMid meet">

<g transform="translate(0.000000,99.000000) scale(0.100000,-0.100000)"
fill="#000000" stroke="none">
<path d="M1346 964 c-46 -46 16 -132 70 -96 51 33 28 111 -33 112 -12 0 -29
-7 -37 -16z"/>
<path d="M95 763 c-36 -10 -68 -37 -81 -70 -10 -23 -14 -79 -14 -190 0 -141 2
-162 20 -191 31 -50 71 -62 210 -62 l120 0 0 45 0 44 -122 3 -123 3 -3 38 -3
37 44 0 c47 0 107 33 173 95 31 30 34 37 34 90 0 70 -23 121 -64 142 -31 16
-154 27 -191 16z m143 -95 c7 -7 12 -37 12 -67 0 -75 -16 -91 -92 -91 l-58 0
0 78 c0 43 3 82 7 85 11 12 118 8 131 -5z"/>
<path d="M503 759 c-17 -5 -43 -23 -57 -40 -26 -30 -26 -33 -26 -187 1 -108 4
-162 13 -173 7 -8 41 -37 76 -62 55 -41 70 -47 112 -47 l49 0 0 -120 0 -120
45 0 45 0 0 339 0 339 -26 31 c-14 17 -42 35 -62 41 -44 12 -125 12 -169 -1z
m155 -91 c8 -8 12 -60 12 -170 l0 -158 -58 0 c-99 0 -102 6 -102 174 0 97 4
146 12 154 7 7 37 12 68 12 31 0 61 -5 68 -12z"/>
<path d="M852 553 c3 -197 5 -221 23 -247 36 -53 128 -72 202 -41 32 14 38 14
53 0 9 -8 29 -15 43 -15 l27 0 0 260 0 260 -45 0 -45 0 0 -196 c0 -115 -4
-203 -10 -215 -9 -16 -22 -19 -74 -19 -49 0 -65 4 -70 16 -3 9 -6 105 -6 215
l0 199 -51 0 -50 0 3 -217z"/>
<path d="M1250 725 l0 -45 45 0 45 0 0 -215 0 -215 45 0 45 0 0 260 0 260 -90
0 -90 0 0 -45z"/>
<path d="M1615 763 c-36 -10 -68 -37 -81 -70 -10 -23 -14 -79 -14 -190 0 -179
10 -212 75 -239 49 -20 161 -18 205 4 60 29 70 65 70 240 0 174 -10 211 -64
239 -31 16 -154 27 -191 16z m144 -97 c8 -9 11 -63 9 -167 l-3 -154 -70 0 -70
0 -3 155 c-1 85 0 160 2 167 7 18 120 18 135 -1z"/>
</g>
</svg>
